<?xml version="1.0" encoding="utf-8"?>
<!-- Generated by Mocodo 4.2.4 -->
<svg width="468" height="363" viewBox="0 0 468 363" xmlns="http://www.w3.org/2000/svg">
<rect x="0" y="0" width="468" height="363" fill="#f7f7f7" stroke="none" stroke-width="0"/>

<!-- Association REPLY -->
<g>
	<path d="M47 152 C5.67 101 5.67 67.33 47 51" fill="none" stroke="#e08214" stroke-width="2"/>
	<path d="M47 152 C88.33 101 88.33 67.33 47 51" fill="none" stroke="#e08214" stroke-width="2"/>
	<g>
		<path d="M57 26 a14 14 90 0 1 14 14 V51 h-48 V40 a14 14 90 0 1 14 -14" fill="#fdb863" stroke="#fdb863" stroke-width="0"/>
		<path d="M71 51 v11 a14 14 90 0 1 -14 14 H37 a14 14 90 0 1 -14 -14 V51 H48" fill="#fee0b6" stroke="#fee0b6" stroke-width="0"/>
		<rect x="23" y="26" width="48" height="50" fill="none" rx="14" stroke="#e08214" stroke-width="2"/>
		<line x1="23" y1="51" x2="71" y2="51" stroke="#e08214" stroke-width="1"/>
		<text x="30" y="43.75" fill="#000000" font-family="Verdana" font-size="12">Reply</text>
	</g>
	<text x="23" y="93" fill="#542788" font-family="Verdana" font-size="12">0,1</text>
	<text x="50" y="93" fill="#542788" font-family="Verdana" font-size="12">1,1</text>
</g>

<!-- Association WROTE -->
<g>
	<line x1="249" y1="51" x2="143" y2="51" stroke="#e08214" stroke-width="2"/>
	<path d="M47 152 C115.1 137.96 147.1 104.3 143 51" fill="none" stroke="#e08214" stroke-width="2"/>
	<g>
		<path d="M155 26 a14 14 90 0 1 14 14 V51 h-52 V40 a14 14 90 0 1 14 -14" fill="#fdb863" stroke="#fdb863" stroke-width="0"/>
		<path d="M169 51 v11 a14 14 90 0 1 -14 14 H131 a14 14 90 0 1 -14 -14 V51 H52" fill="#fee0b6" stroke="#fee0b6" stroke-width="0"/>
		<rect x="117" y="26" width="52" height="50" fill="none" rx="14" stroke="#e08214" stroke-width="2"/>
		<line x1="117" y1="51" x2="169" y2="51" stroke="#e08214" stroke-width="1"/>
		<text x="125" y="43.75" fill="#000000" font-family="Verdana" font-size="12">Wrote</text>
	</g>
	<text x="186" y="43" fill="#542788" font-family="Verdana" font-size="12">0,N</text>
	<text x="90" y="120.82" fill="#542788" font-family="Verdana" font-size="12">1,1</text>
</g>

<!-- Association REPRESENTED_BY -->
<g>
	<line x1="249" y1="51" x2="372" y2="51" stroke="#e08214" stroke-width="2"/>
	<line x1="372" y1="152" x2="372" y2="51" stroke="#e08214" stroke-width="2"/>
	<g>
		<path d="M413 26 a14 14 90 0 1 14 14 V51 h-110 V40 a14 14 90 0 1 14 -14" fill="#fdb863" stroke="#fdb863" stroke-width="0"/>
		<path d="M427 51 v11 a14 14 90 0 1 -14 14 H331 a14 14 90 0 1 -14 -14 V51 H110" fill="#fee0b6" stroke="#fee0b6" stroke-width="0"/>
		<rect x="317" y="26" width="110" height="50" fill="none" rx="14" stroke="#e08214" stroke-width="2"/>
		<line x1="317" y1="51" x2="427" y2="51" stroke="#e08214" stroke-width="1"/>
		<text x="324" y="43.75" fill="#000000" font-family="Verdana" font-size="12">Represented by</text>
	</g>
	<text x="290" y="68" fill="#542788" font-family="Verdana" font-size="12">0,1</text>
	<text x="377" y="110" fill="#542788" font-family="Verdana" font-size="12">1,1</text>
</g>

<!-- Association SAVED -->
<g>
	<line x1="249" y1="51" x2="143" y2="152" stroke="#e08214" stroke-width="2"/>
	<line x1="249" y1="278" x2="143" y2="152" stroke="#e08214" stroke-width="2"/>
	<g>
		<path d="M155 127 a14 14 90 0 1 14 14 V152 h-52 V141 a14 14 90 0 1 14 -14" fill="#fdb863" stroke="#fdb863" stroke-width="0"/>
		<path d="M169 152 v11 a14 14 90 0 1 -14 14 H131 a14 14 90 0 1 -14 -14 V152 H52" fill="#fee0b6" stroke="#fee0b6" stroke-width="0"/>
		<rect x="117" y="127" width="52" height="50" fill="none" rx="14" stroke="#e08214" stroke-width="2"/>
		<line x1="117" y1="152" x2="169" y2="152" stroke="#e08214" stroke-width="1"/>
		<text x="124" y="144.75" fill="#000000" font-family="Verdana" font-size="12">Saved</text>
	</g>
	<text x="186" y="84.13" fill="#542788" font-family="Verdana" font-size="12">0,N</text>
	<text x="178" y="236.49" fill="#542788" font-family="Verdana" font-size="12">0,N</text>
</g>

<!-- Association POSTED -->
<g>
	<line x1="249" y1="51" x2="249" y2="152" stroke="#e08214" stroke-width="2"/>
	<line x1="249" y1="278" x2="249" y2="152" stroke="#e08214" stroke-width="2"/>
	<g>
		<path d="M263 127 a14 14 90 0 1 14 14 V152 h-56 V141 a14 14 90 0 1 14 -14" fill="#fdb863" stroke="#fdb863" stroke-width="0"/>
		<path d="M277 152 v11 a14 14 90 0 1 -14 14 H235 a14 14 90 0 1 -14 -14 V152 H56" fill="#fee0b6" stroke="#fee0b6" stroke-width="0"/>
		<rect x="221" y="127" width="56" height="50" fill="none" rx="14" stroke="#e08214" stroke-width="2"/>
		<line x1="221" y1="152" x2="277" y2="152" stroke="#e08214" stroke-width="1"/>
		<text x="229" y="144.75" fill="#000000" font-family="Verdana" font-size="12">Posted</text>
	</g>
	<text x="254" y="110" fill="#542788" font-family="Verdana" font-size="12">0,N</text>
	<text x="254" y="194" fill="#542788" font-family="Verdana" font-size="12">1,1</text>
</g>

<!-- Association INCLUDE -->
<g>
	<line x1="249" y1="278" x2="143" y2="278" stroke="#e08214" stroke-width="2"/>
	<line x1="47" y1="152" x2="143" y2="278" stroke="#e08214" stroke-width="2"/>
	<g>
		<path d="M159 253 a14 14 90 0 1 14 14 V278 h-60 V267 a14 14 90 0 1 14 -14" fill="#fdb863" stroke="#fdb863" stroke-width="0"/>
		<path d="M173 278 v11 a14 14 90 0 1 -14 14 H127 a14 14 90 0 1 -14 -14 V278 H60" fill="#fee0b6" stroke="#fee0b6" stroke-width="0"/>
		<rect x="113" y="253" width="60" height="50" fill="none" rx="14" stroke="#e08214" stroke-width="2"/>
		<line x1="113" y1="278" x2="173" y2="278" stroke="#e08214" stroke-width="1"/>
		<text x="121" y="270.75" fill="#000000" font-family="Verdana" font-size="12">Include</text>
	</g>
	<text x="178" y="295" fill="#542788" font-family="Verdana" font-size="12">0,N</text>
	<text x="90" y="199.61" fill="#542788" font-family="Verdana" font-size="12">1,1</text>
</g>

<!-- Association POST_IMAGES -->
<g>
	<line x1="372" y1="152" x2="372" y2="278" stroke="#e08214" stroke-width="2"/>
	<line x1="249" y1="278" x2="372" y2="278" stroke="#e08214" stroke-width="2"/>
	<g>
		<path d="M402 253 a14 14 90 0 1 14 14 V278 h-88 V267 a14 14 90 0 1 14 -14" fill="#fdb863" stroke="#fdb863" stroke-width="0"/>
		<path d="M416 278 v11 a14 14 90 0 1 -14 14 H342 a14 14 90 0 1 -14 -14 V278 H88" fill="#fee0b6" stroke="#fee0b6" stroke-width="0"/>
		<rect x="328" y="253" width="88" height="50" fill="none" rx="14" stroke="#e08214" stroke-width="2"/>
		<line x1="328" y1="278" x2="416" y2="278" stroke="#e08214" stroke-width="1"/>
		<text x="335" y="270.75" fill="#000000" font-family="Verdana" font-size="12">Post images</text>
	</g>
	<text x="377" y="203" fill="#542788" font-family="Verdana" font-size="12">1,N</text>
	<text x="298" y="295" fill="#542788" font-family="Verdana" font-size="12">1,N</text>
</g>

<!-- Entity USERS -->
<g>
	<g>
		<rect x="213" y="9" width="72" height="25" fill="#b2abd2" stroke="none" stroke-width="0" opacity="1"/>
		<rect x="213" y="34" width="72" height="59" fill="#d8daeb" stroke="none" stroke-width="0" opacity="1"/>
		<rect x="213" y="9" width="72" height="84" fill="none" stroke="#8073ac" stroke-width="2" opacity="1"/>
		<line x1="213" y1="34" x2="285" y2="34" stroke="#8073ac" stroke-width="1"/>
	</g>
	<text x="232" y="26.75" fill="#000000" font-family="Verdana" font-size="12">Users</text>
	<text x="218" y="51.8" fill="#000000" font-family="Verdana" font-size="12">id</text>
	<line x1="218" y1="54" x2="230" y2="54" stroke="#000000" stroke-width="1"/>
	<text x="218" y="68.8" fill="#000000" font-family="Verdana" font-size="12">username</text>
	<text x="218" y="85.8" fill="#000000" font-family="Verdana" font-size="12">password</text>
</g>

<!-- Entity COMMENTS -->
<g>
	<g>
		<rect x="9" y="101" width="76" height="25" fill="#b2abd2" stroke="none" stroke-width="0" opacity="1"/>
		<rect x="9" y="126" width="76" height="77" fill="#d8daeb" stroke="none" stroke-width="0" opacity="1"/>
		<rect x="9" y="101" width="76" height="102" fill="none" stroke="#8073ac" stroke-width="2" opacity="1"/>
		<line x1="9" y1="126" x2="85" y2="126" stroke="#8073ac" stroke-width="1"/>
	</g>
	<text x="14" y="118.75" fill="#000000" font-family="Verdana" font-size="12">Comments</text>
	<text x="14" y="143.8" fill="#000000" font-family="Verdana" font-size="12">id</text>
	<line x1="14" y1="146" x2="26" y2="146" stroke="#000000" stroke-width="1"/>
	<text x="14" y="160.8" fill="#000000" font-family="Verdana" font-size="12">post</text>
	<text x="14" y="177.8" fill="#000000" font-family="Verdana" font-size="12">date</text>
	<text x="14" y="194.8" fill="#000000" font-family="Verdana" font-size="12">comment</text>
</g>

<!-- Entity IMAGES -->
<g>
	<g>
		<rect x="344" y="118" width="56" height="25" fill="#b2abd2" stroke="none" stroke-width="0" opacity="1"/>
		<rect x="344" y="143" width="56" height="43" fill="#d8daeb" stroke="none" stroke-width="0" opacity="1"/>
		<rect x="344" y="118" width="56" height="68" fill="none" stroke="#8073ac" stroke-width="2" opacity="1"/>
		<line x1="344" y1="143" x2="400" y2="143" stroke="#8073ac" stroke-width="1"/>
	</g>
	<text x="349" y="135.75" fill="#000000" font-family="Verdana" font-size="12">Images</text>
	<text x="349" y="160.8" fill="#000000" font-family="Verdana" font-size="12">id</text>
	<line x1="349" y1="163" x2="361" y2="163" stroke="#000000" stroke-width="1"/>
	<text x="349" y="177.8" fill="#000000" font-family="Verdana" font-size="12">image</text>
</g>

<!-- Entity POSTS -->
<g>
	<g>
		<rect x="205" y="202" width="88" height="25" fill="#b2abd2" stroke="none" stroke-width="0" opacity="1"/>
		<rect x="205" y="227" width="88" height="127" fill="#d8daeb" stroke="none" stroke-width="0" opacity="1"/>
		<rect x="205" y="202" width="88" height="152" fill="none" stroke="#8073ac" stroke-width="2" opacity="1"/>
		<line x1="205" y1="227" x2="293" y2="227" stroke="#8073ac" stroke-width="1"/>
	</g>
	<text x="233" y="219.75" fill="#000000" font-family="Verdana" font-size="12">Posts</text>
	<text x="210" y="244.8" fill="#000000" font-family="Verdana" font-size="12">id</text>
	<line x1="210" y1="247" x2="222" y2="247" stroke="#000000" stroke-width="1"/>
	<text x="210" y="261.8" fill="#000000" font-family="Verdana" font-size="12">cover</text>
	<text x="210" y="278.8" fill="#000000" font-family="Verdana" font-size="12">date</text>
	<text x="210" y="295.8" fill="#000000" font-family="Verdana" font-size="12">title</text>
	<text x="210" y="312.8" fill="#000000" font-family="Verdana" font-size="12">description</text>
	<text x="210" y="329.8" fill="#000000" font-family="Verdana" font-size="12">rating</text>
	<text x="210" y="346.8" fill="#000000" font-family="Verdana" font-size="12">performance</text>
</g>
</svg>
