<?xml version="1.0" encoding="utf-8"?>
<!-- Generated by Mocodo 4.2.4 -->
<svg width="350" height="287" viewBox="0 0 350 287" xmlns="http://www.w3.org/2000/svg">
<rect x="0" y="0" width="350" height="287" fill="#00000000" stroke="none" stroke-width="0"/>

<!-- Association WRITE -->
<g>
	<line x1="169" y1="60" x2="47" y2="60" stroke="#66bd63" stroke-width="2"/>
	<line x1="47" y1="161" x2="47" y2="60" stroke="#66bd63" stroke-width="2"/>
	<g>
		<path d="M57 35 a14 14 90 0 1 14 14 V60 h-48 V49 a14 14 90 0 1 14 -14" fill="#a6d96a" stroke="#a6d96a" stroke-width="0"/>
		<path d="M71 60 v11 a14 14 90 0 1 -14 14 H37 a14 14 90 0 1 -14 -14 V60 H48" fill="#d9ef8b" stroke="#d9ef8b" stroke-width="0"/>
		<rect x="23" y="35" width="48" height="50" fill="none" rx="14" stroke="#66bd63" stroke-width="2"/>
		<line x1="23" y1="60" x2="71" y2="60" stroke="#66bd63" stroke-width="1"/>
		<text x="31" y="52.75" fill="#000000" font-family="Verdana" font-size="12">Write</text>
	</g>
	<text x="105" y="77" fill="#d73027" font-family="Verdana" font-size="12">0,M</text>
	<text x="52" y="111" fill="#d73027" font-family="Verdana" font-size="12">1,1</text>
</g>

<!-- Association PUBLISH -->
<g>
	<line x1="295" y1="161" x2="295" y2="60" stroke="#66bd63" stroke-width="2"/>
	<line x1="169" y1="60" x2="295" y2="60" stroke="#66bd63" stroke-width="2"/>
	<g>
		<path d="M310 35 a14 14 90 0 1 14 14 V60 h-58 V49 a14 14 90 0 1 14 -14" fill="#a6d96a" stroke="#a6d96a" stroke-width="0"/>
		<path d="M324 60 v11 a14 14 90 0 1 -14 14 H280 a14 14 90 0 1 -14 -14 V60 H58" fill="#d9ef8b" stroke="#d9ef8b" stroke-width="0"/>
		<rect x="266" y="35" width="58" height="50" fill="none" rx="14" stroke="#66bd63" stroke-width="2"/>
		<line x1="266" y1="60" x2="324" y2="60" stroke="#66bd63" stroke-width="1"/>
		<text x="273" y="52.75" fill="#000000" font-family="Verdana" font-size="12">Publish</text>
	</g>
	<text x="300" y="111" fill="#d73027" font-family="Verdana" font-size="12">1,1</text>
	<text x="210" y="77" fill="#d73027" font-family="Verdana" font-size="12">0,N</text>
</g>

<!-- Association COMMENTED_ON -->
<g>
	<line x1="295" y1="161" x2="169" y2="161" stroke="#66bd63" stroke-width="2"/>
	<line x1="47" y1="161" x2="169" y2="161" stroke="#66bd63" stroke-width="2"/>
	<g>
		<path d="M209 136 a14 14 90 0 1 14 14 V161 h-108 V150 a14 14 90 0 1 14 -14" fill="#a6d96a" stroke="#a6d96a" stroke-width="0"/>
		<path d="M223 161 v11 a14 14 90 0 1 -14 14 H129 a14 14 90 0 1 -14 -14 V161 H108" fill="#d9ef8b" stroke="#d9ef8b" stroke-width="0"/>
		<rect x="115" y="136" width="108" height="50" fill="none" rx="14" stroke="#66bd63" stroke-width="2"/>
		<line x1="115" y1="161" x2="223" y2="161" stroke="#66bd63" stroke-width="1"/>
		<text x="123" y="153.75" fill="#000000" font-family="Verdana" font-size="12">Commented on</text>
	</g>
	<text x="229" y="178" fill="#d73027" font-family="Verdana" font-size="12">0,N</text>
	<text x="87" y="178" fill="#d73027" font-family="Verdana" font-size="12">1,1</text>
</g>

<!-- Association REPLIED_TO -->
<g>
	<path d="M47 161 C89.67 203 89.67 233.67 47 253" fill="none" stroke="#66bd63" stroke-width="2"/>
	<path d="M47 161 C5.67 203 5.67 233.67 47 253" fill="none" stroke="#66bd63" stroke-width="2"/>
	<g>
		<path d="M71 228 a14 14 90 0 1 14 14 V253 h-76 V242 a14 14 90 0 1 14 -14" fill="#a6d96a" stroke="#a6d96a" stroke-width="0"/>
		<path d="M85 253 v11 a14 14 90 0 1 -14 14 H23 a14 14 90 0 1 -14 -14 V253 H76" fill="#d9ef8b" stroke="#d9ef8b" stroke-width="0"/>
		<rect x="9" y="228" width="76" height="50" fill="none" rx="14" stroke="#66bd63" stroke-width="2"/>
		<line x1="9" y1="253" x2="85" y2="253" stroke="#66bd63" stroke-width="1"/>
		<text x="17" y="245.75" fill="#000000" font-family="Verdana" font-size="12">Replied to</text>
	</g>
	<text x="49" y="220" fill="#d73027" font-family="Verdana" font-size="12">0,N</text>
	<text x="24" y="220" fill="#d73027" font-family="Verdana" font-size="12">0,1</text>
</g>

<!-- Association FORKED_FROM -->
<g>
	<path d="M295 161 C336.33 203 336.33 233.67 295 253" fill="none" stroke="#66bd63" stroke-width="2"/>
	<path d="M295 161 C252.33 203 252.33 233.67 295 253" fill="none" stroke="#66bd63" stroke-width="2"/>
	<g>
		<path d="M327 228 a14 14 90 0 1 14 14 V253 h-92 V242 a14 14 90 0 1 14 -14" fill="#a6d96a" stroke="#a6d96a" stroke-width="0"/>
		<path d="M341 253 v11 a14 14 90 0 1 -14 14 H263 a14 14 90 0 1 -14 -14 V253 H92" fill="#d9ef8b" stroke="#d9ef8b" stroke-width="0"/>
		<rect x="249" y="228" width="92" height="50" fill="none" rx="14" stroke="#66bd63" stroke-width="2"/>
		<line x1="249" y1="253" x2="341" y2="253" stroke="#66bd63" stroke-width="1"/>
		<text x="257" y="245.75" fill="#000000" font-family="Verdana" font-size="12">Forked From</text>
	</g>
	<text x="297" y="220" fill="#d73027" font-family="Verdana" font-size="12">0,1</text>
	<text x="271" y="220" fill="#d73027" font-family="Verdana" font-size="12">0,N</text>
</g>

<!-- Entity USER -->
<g>
	<g>
		<rect x="133" y="9" width="72" height="25" fill="#fdae61" stroke="none" stroke-width="0" opacity="1"/>
		<rect x="133" y="34" width="72" height="77" fill="#fee08b" stroke="none" stroke-width="0" opacity="1"/>
		<rect x="133" y="9" width="72" height="102" fill="none" stroke="#f46d43" stroke-width="2" opacity="1"/>
		<line x1="133" y1="34" x2="205" y2="34" stroke="#f46d43" stroke-width="1"/>
	</g>
	<text x="155" y="26.75" fill="#000000" font-family="Verdana" font-size="12">User</text>
	<text x="138" y="51.8" fill="#000000" font-family="Verdana" font-size="12">id</text>
	<line x1="138" y1="54" x2="150" y2="54" stroke="#000000" stroke-width="1"/>
	<text x="138" y="68.8" fill="#000000" font-family="Verdana" font-size="12">username</text>
	<text x="138" y="85.8" fill="#000000" font-family="Verdana" font-size="12">password</text>
	<text x="138" y="102.8" fill="#000000" font-family="Verdana" font-size="12">avatar</text>
</g>

<!-- Entity COMMENT -->
<g>
	<g>
		<rect x="12" y="119" width="70" height="25" fill="#fdae61" stroke="none" stroke-width="0" opacity="1"/>
		<rect x="12" y="144" width="70" height="59" fill="#fee08b" stroke="none" stroke-width="0" opacity="1"/>
		<rect x="12" y="119" width="70" height="84" fill="none" stroke="#f46d43" stroke-width="2" opacity="1"/>
		<line x1="12" y1="144" x2="82" y2="144" stroke="#f46d43" stroke-width="1"/>
	</g>
	<text x="18" y="136.75" fill="#000000" font-family="Verdana" font-size="12">Comment</text>
	<text x="17" y="161.8" fill="#000000" font-family="Verdana" font-size="12">id</text>
	<line x1="17" y1="164" x2="29" y2="164" stroke="#000000" stroke-width="1"/>
	<text x="17" y="178.8" fill="#000000" font-family="Verdana" font-size="12">comment</text>
	<text x="17" y="195.8" fill="#000000" font-family="Verdana" font-size="12">date</text>
</g>

<!-- Entity POST -->
<g>
	<g>
		<rect x="256" y="119" width="78" height="25" fill="#fdae61" stroke="none" stroke-width="0" opacity="1"/>
		<rect x="256" y="144" width="78" height="59" fill="#fee08b" stroke="none" stroke-width="0" opacity="1"/>
		<rect x="256" y="119" width="78" height="84" fill="none" stroke="#f46d43" stroke-width="2" opacity="1"/>
		<line x1="256" y1="144" x2="334" y2="144" stroke="#f46d43" stroke-width="1"/>
	</g>
	<text x="282" y="136.75" fill="#000000" font-family="Verdana" font-size="12">Post</text>
	<text x="261" y="161.8" fill="#000000" font-family="Verdana" font-size="12">id</text>
	<line x1="261" y1="164" x2="273" y2="164" stroke="#000000" stroke-width="1"/>
	<text x="261" y="178.8" fill="#000000" font-family="Verdana" font-size="12">date</text>
	<text x="261" y="195.8" fill="#000000" font-family="Verdana" font-size="12">description</text>
</g>
</svg>