<?xml version="1.0" encoding="utf-8"?>
<!-- Generated by Mocodo 4.2.1 -->
<svg width="424" height="120" viewBox="0 0 424 120" xmlns="http://www.w3.org/2000/svg">
<rect x="0" y="0" width="424" height="120" fill="#00000000" stroke="none" stroke-width="0"/>

<!-- Association WRITE -->
<g>
	<line x1="240" y1="60" x2="141" y2="60" stroke="#bf812d" stroke-width="2"/>
	<line x1="45" y1="60" x2="141" y2="60" stroke="#bf812d" stroke-width="2"/>
	<g>
		<path d="M155 35 a14 14 90 0 1 14 14 V60 h-56 V49 a14 14 90 0 1 14 -14" fill="#dfc27d" stroke="#dfc27d" stroke-width="0"/>
		<path d="M169 60 v11 a14 14 90 0 1 -14 14 H127 a14 14 90 0 1 -14 -14 V60 H56" fill="#f6e8c3" stroke="#f6e8c3" stroke-width="0"/>
		<rect x="113" y="35" width="56" height="50" fill="none" rx="14" stroke="#bf812d" stroke-width="2"/>
		<line x1="113" y1="60" x2="169" y2="60" stroke="#bf812d" stroke-width="1"/>
		<text x="121" y="52.75" fill="#000000" font-family="Verdana" font-size="12">WRITE</text>
		<text x="120" y="77.8" fill="#000000" font-family="Verdana" font-size="12">date</text>
	</g>
	<text x="175" y="77" fill="#01665e" font-family="Verdana" font-size="12">1,1</text>
	<text x="86" y="77" fill="#01665e" font-family="Verdana" font-size="12">0,N</text>
</g>

<!-- Association FORKED_FROM -->
<g>
	<path d="M240 60 C271.67 26.67 312.67 26.67 363 60" fill="none" stroke="#bf812d" stroke-width="2"/>
	<path d="M240 60 C272.33 93.33 313.33 93.33 363 60" fill="none" stroke="#bf812d" stroke-width="2"/>
	<g>
		<path d="M401 35 a14 14 90 0 1 14 14 V60 h-104 V49 a14 14 90 0 1 14 -14" fill="#dfc27d" stroke="#dfc27d" stroke-width="0"/>
		<path d="M415 60 v11 a14 14 90 0 1 -14 14 H325 a14 14 90 0 1 -14 -14 V60 H104" fill="#f6e8c3" stroke="#f6e8c3" stroke-width="0"/>
		<rect x="311" y="35" width="104" height="50" fill="none" rx="14" stroke="#bf812d" stroke-width="2"/>
		<line x1="311" y1="60" x2="415" y2="60" stroke="#bf812d" stroke-width="1"/>
		<text x="318" y="52.75" fill="#000000" font-family="Verdana" font-size="12">FORKED FROM</text>
	</g>
	<text x="284" y="54" fill="#01665e" font-family="Verdana" font-size="12">0,1</text>
	<text x="284" y="75" fill="#01665e" font-family="Verdana" font-size="12">0,N</text>
</g>

<!-- Entity USER -->
<g>
	<g>
		<rect x="9" y="9" width="72" height="25" fill="#80cdc1" stroke="none" stroke-width="0" opacity="1"/>
		<rect x="9" y="34" width="72" height="77" fill="#c7eae5" stroke="none" stroke-width="0" opacity="1"/>
		<rect x="9" y="9" width="72" height="102" fill="none" stroke="#35978f" stroke-width="2" opacity="1"/>
		<line x1="9" y1="34" x2="81" y2="34" stroke="#35978f" stroke-width="1"/>
	</g>
	<text x="28" y="26.75" fill="#000000" font-family="Verdana" font-size="12">USER</text>
	<text x="14" y="51.8" fill="#000000" font-family="Verdana" font-size="12">id</text>
	<line x1="14" y1="54" x2="26" y2="54" stroke="#000000" stroke-width="1"/>
	<text x="14" y="68.8" fill="#000000" font-family="Verdana" font-size="12">username</text>
	<text x="14" y="85.8" fill="#000000" font-family="Verdana" font-size="12">password</text>
	<text x="14" y="102.8" fill="#000000" font-family="Verdana" font-size="12">avatar</text>
</g>

<!-- Entity POST -->
<g>
	<g>
		<rect x="201" y="26" width="78" height="25" fill="#80cdc1" stroke="none" stroke-width="0" opacity="1"/>
		<rect x="201" y="51" width="78" height="43" fill="#c7eae5" stroke="none" stroke-width="0" opacity="1"/>
		<rect x="201" y="26" width="78" height="68" fill="none" stroke="#35978f" stroke-width="2" opacity="1"/>
		<line x1="201" y1="51" x2="279" y2="51" stroke="#35978f" stroke-width="1"/>
	</g>
	<text x="224" y="43.75" fill="#000000" font-family="Verdana" font-size="12">POST</text>
	<text x="206" y="68.8" fill="#000000" font-family="Verdana" font-size="12">id</text>
	<line x1="206" y1="71" x2="218" y2="71" stroke="#000000" stroke-width="1"/>
	<text x="206" y="85.8" fill="#000000" font-family="Verdana" font-size="12">description</text>
</g>
</svg>