<?xml version="1.0" encoding="utf-8"?>
<!-- Generated by Mocodo 4.2.4 -->
<svg width="445" height="212" viewBox="0 0 445 212" xmlns="http://www.w3.org/2000/svg">
<rect x="0" y="0" width="445" height="212" fill="#00000000" stroke="none" stroke-width="0"/>

<!-- Association WRITE -->
<g>
	<line x1="273" y1="60" x2="152" y2="60" stroke="#66bd63" stroke-width="2"/>
	<line x1="47" y1="60" x2="152" y2="60" stroke="#66bd63" stroke-width="2"/>
	<g>
		<path d="M162 35 a14 14 90 0 1 14 14 V60 h-48 V49 a14 14 90 0 1 14 -14" fill="#a6d96a" stroke="#a6d96a" stroke-width="0"/>
		<path d="M176 60 v11 a14 14 90 0 1 -14 14 H142 a14 14 90 0 1 -14 -14 V60 H48" fill="#d9ef8b" stroke="#d9ef8b" stroke-width="0"/>
		<rect x="128" y="35" width="48" height="50" fill="none" rx="14" stroke="#66bd63" stroke-width="2"/>
		<line x1="128" y1="60" x2="176" y2="60" stroke="#66bd63" stroke-width="1"/>
		<text x="136" y="52.75" fill="#000000" font-family="Verdana" font-size="12">Write</text>
	</g>
	<text x="208" y="77" fill="#d73027" font-family="Verdana" font-size="12">1,1</text>
	<text x="88" y="77" fill="#d73027" font-family="Verdana" font-size="12">0,N</text>
</g>

<!-- Association FORKED_FROM -->
<g>
	<path d="M273 60 C306.67 26.67 345.67 26.67 390 60" fill="none" stroke="#66bd63" stroke-width="2"/>
	<path d="M273 60 C307.33 93.33 346.33 93.33 390 60" fill="none" stroke="#66bd63" stroke-width="2"/>
	<g>
		<path d="M422 35 a14 14 90 0 1 14 14 V60 h-92 V49 a14 14 90 0 1 14 -14" fill="#a6d96a" stroke="#a6d96a" stroke-width="0"/>
		<path d="M436 60 v11 a14 14 90 0 1 -14 14 H358 a14 14 90 0 1 -14 -14 V60 H92" fill="#d9ef8b" stroke="#d9ef8b" stroke-width="0"/>
		<rect x="344" y="35" width="92" height="50" fill="none" rx="14" stroke="#66bd63" stroke-width="2"/>
		<line x1="344" y1="60" x2="436" y2="60" stroke="#66bd63" stroke-width="1"/>
		<text x="352" y="52.75" fill="#000000" font-family="Verdana" font-size="12">Forked From</text>
	</g>
	<text x="317" y="54" fill="#d73027" font-family="Verdana" font-size="12">0,1</text>
	<text x="317" y="75" fill="#d73027" font-family="Verdana" font-size="12">0,N</text>
</g>

<!-- Association REPLIED_TO -->
<g>
	<path d="M152 161 C119 194.33 84 194.33 47 161" fill="none" stroke="#66bd63" stroke-width="2"/>
	<path d="M152 161 C119.67 127.67 84.67 127.67 47 161" fill="none" stroke="#66bd63" stroke-width="2"/>
	<g>
		<path d="M71 136 a14 14 90 0 1 14 14 V161 h-76 V150 a14 14 90 0 1 14 -14" fill="#a6d96a" stroke="#a6d96a" stroke-width="0"/>
		<path d="M85 161 v11 a14 14 90 0 1 -14 14 H23 a14 14 90 0 1 -14 -14 V161 H76" fill="#d9ef8b" stroke="#d9ef8b" stroke-width="0"/>
		<rect x="9" y="136" width="76" height="50" fill="none" rx="14" stroke="#66bd63" stroke-width="2"/>
		<line x1="9" y1="161" x2="85" y2="161" stroke="#66bd63" stroke-width="1"/>
		<text x="17" y="153.75" fill="#000000" font-family="Verdana" font-size="12">Replied to</text>
	</g>
	<text x="90" y="176" fill="#d73027" font-family="Verdana" font-size="12">0,N</text>
	<text x="91" y="155" fill="#d73027" font-family="Verdana" font-size="12">0,1</text>
</g>

<!-- Association COMMENTED_ON -->
<g>
	<line x1="273" y1="60" x2="273" y2="161" stroke="#66bd63" stroke-width="2"/>
	<line x1="152" y1="161" x2="273" y2="161" stroke="#66bd63" stroke-width="2"/>
	<g>
		<path d="M313 136 a14 14 90 0 1 14 14 V161 h-108 V150 a14 14 90 0 1 14 -14" fill="#a6d96a" stroke="#a6d96a" stroke-width="0"/>
		<path d="M327 161 v11 a14 14 90 0 1 -14 14 H233 a14 14 90 0 1 -14 -14 V161 H108" fill="#d9ef8b" stroke="#d9ef8b" stroke-width="0"/>
		<rect x="219" y="136" width="108" height="50" fill="none" rx="14" stroke="#66bd63" stroke-width="2"/>
		<line x1="219" y1="161" x2="327" y2="161" stroke="#66bd63" stroke-width="1"/>
		<text x="227" y="153.75" fill="#000000" font-family="Verdana" font-size="12">Commented on</text>
	</g>
	<text x="278" y="119" fill="#d73027" font-family="Verdana" font-size="12">0,N</text>
	<text x="192" y="178" fill="#d73027" font-family="Verdana" font-size="12">1,1</text>
</g>

<!-- Entity USER -->
<g>
	<g>
		<rect x="11" y="9" width="72" height="25" fill="#fdae61" stroke="none" stroke-width="0" opacity="1"/>
		<rect x="11" y="34" width="72" height="77" fill="#fee08b" stroke="none" stroke-width="0" opacity="1"/>
		<rect x="11" y="9" width="72" height="102" fill="none" stroke="#f46d43" stroke-width="2" opacity="1"/>
		<line x1="11" y1="34" x2="83" y2="34" stroke="#f46d43" stroke-width="1"/>
	</g>
	<text x="33" y="26.75" fill="#000000" font-family="Verdana" font-size="12">User</text>
	<text x="16" y="51.8" fill="#000000" font-family="Verdana" font-size="12">id</text>
	<line x1="16" y1="54" x2="28" y2="54" stroke="#000000" stroke-width="1"/>
	<text x="16" y="68.8" fill="#000000" font-family="Verdana" font-size="12">username</text>
	<text x="16" y="85.8" fill="#000000" font-family="Verdana" font-size="12">password</text>
	<text x="16" y="102.8" fill="#000000" font-family="Verdana" font-size="12">avatar</text>
</g>

<!-- Entity POST -->
<g>
	<g>
		<rect x="234" y="18" width="78" height="25" fill="#fdae61" stroke="none" stroke-width="0" opacity="1"/>
		<rect x="234" y="43" width="78" height="59" fill="#fee08b" stroke="none" stroke-width="0" opacity="1"/>
		<rect x="234" y="18" width="78" height="84" fill="none" stroke="#f46d43" stroke-width="2" opacity="1"/>
		<line x1="234" y1="43" x2="312" y2="43" stroke="#f46d43" stroke-width="1"/>
	</g>
	<text x="260" y="35.75" fill="#000000" font-family="Verdana" font-size="12">Post</text>
	<text x="239" y="60.8" fill="#000000" font-family="Verdana" font-size="12">id</text>
	<line x1="239" y1="63" x2="251" y2="63" stroke="#000000" stroke-width="1"/>
	<text x="239" y="77.8" fill="#000000" font-family="Verdana" font-size="12">date</text>
	<text x="239" y="94.8" fill="#000000" font-family="Verdana" font-size="12">description</text>
</g>

<!-- Entity COMMENT -->
<g>
	<g>
		<rect x="117" y="119" width="70" height="25" fill="#fdae61" stroke="none" stroke-width="0" opacity="1"/>
		<rect x="117" y="144" width="70" height="59" fill="#fee08b" stroke="none" stroke-width="0" opacity="1"/>
		<rect x="117" y="119" width="70" height="84" fill="none" stroke="#f46d43" stroke-width="2" opacity="1"/>
		<line x1="117" y1="144" x2="187" y2="144" stroke="#f46d43" stroke-width="1"/>
	</g>
	<text x="123" y="136.75" fill="#000000" font-family="Verdana" font-size="12">Comment</text>
	<text x="122" y="161.8" fill="#000000" font-family="Verdana" font-size="12">id</text>
	<line x1="122" y1="164" x2="134" y2="164" stroke="#000000" stroke-width="1"/>
	<text x="122" y="178.8" fill="#000000" font-family="Verdana" font-size="12">comment</text>
	<text x="122" y="195.8" fill="#000000" font-family="Verdana" font-size="12">date</text>
</g>
</svg>